<svg width="480" height="480" xmlns="http://www.w3.org/2000/svg">

 <g>
  <title>background</title>
  <rect fill="none" id="canvas_background" height="602" width="802" y="-1" x="-1"/>
 </g>
 <g>
  <title>Layer 1</title>
  <g stroke="null" id="svg_1">
   <g stroke="null" id="svg_2">
    <g stroke="null" id="svg_3">
     <path stroke="null" fill="#d1d2d6" id="svg_4" d="m333.75,161.24991l-187.50004,0c-10.35,0.01219 -18.73782,8.4 -18.75,18.75l0,120.00002c0.01219,10.35 8.4,18.73782 18.75,18.75l187.50004,0c1.05234,0.00422 2.10281,-0.08766 3.13875,-0.27375c9.02297,-1.51031 15.6286,-9.32766 15.61125,-18.47625l0,-120.00002c-0.01219,-10.35047 -8.4,-18.73782 -18.75,-18.75zm-187.50004,150.00003c-5.82891,-0.00094 -10.69219,-4.45359 -11.205,-10.26l74.76752,-48.88501l76.03502,59.14501l-139.59753,0zm198.75004,-11.25c0.00609,5.50406 -3.98063,10.20047 -9.4125,11.08875c-0.60656,0.10922 -1.22156,0.16313 -1.8375,0.16125l-35.68876,0l-49.68376,-38.66626l44.43001,-35.52751l52.19251,31.31626l0,31.62751zm0,-40.37251l-50.56876,-30.34126c-1.34438,-0.80859 -3.04969,-0.69469 -4.275,0.285l-47.87626,38.28751l-29.98126,-23.3175c-1.26328,-0.98156 -3.00984,-1.05422 -4.35,-0.18l-72.94876,47.69626l0,-112.05752c0,-6.21328 5.03672,-11.25 11.25,-11.25l187.50004,0c6.21328,0 11.25,5.03672 11.25,11.25l0,79.62752z"/>
     <path stroke="null" fill="#d1d2d6" id="svg_5" d="m239.99998,183.74991c-12.42656,0 -22.5,10.07344 -22.5,22.5c0.01219,12.42141 10.0786,22.48782 22.5,22.5c12.42656,0 22.5,-10.07344 22.5,-22.5c0,-12.42656 -10.07344,-22.5 -22.5,-22.5zm0,37.50001c-8.28422,0 -15,-6.71578 -15,-15s6.71578,-15 15,-15c8.28422,0 15,6.71578 15,15s-6.71578,15 -15,15z"/>
    </g>
   </g>
  </g>
  <g id="svg_6"/>
  <g id="svg_7"/>
  <g id="svg_8"/>
  <g id="svg_9"/>
  <g id="svg_10"/>
  <g id="svg_11"/>
  <g id="svg_12"/>
  <g id="svg_13"/>
  <g id="svg_14"/>
  <g id="svg_15"/>
  <g id="svg_16"/>
  <g id="svg_17"/>
  <g id="svg_18"/>
  <g id="svg_19"/>
  <g id="svg_20"/>
 </g>
</svg>