<svg id="Слой_1" data-name="Слой 1" xmlns="http://www.w3.org/2000/svg" xmlns:xlink="http://www.w3.org/1999/xlink" viewBox="0 0 74.25 74.25"><defs><style>.cls-1,.cls-3{fill:none;}.cls-2{clip-path:url(#clip-path);}.cls-3{stroke:#000;stroke-miterlimit:10;stroke-width:0.25px;}</style><clipPath id="clip-path" transform="translate(0.13 0.13)"><path class="cls-1" d="M37,0A37,37,0,1,0,74,37,37,37,0,0,0,37,0Zm0,73.5A36.5,36.5,0,1,1,73.5,37,36.5,36.5,0,0,1,37,73.5Z"/></clipPath></defs><title>preloader-circle</title><path class="cls-3" d="M37,0A37,37,0,1,0,74,37,37,37,0,0,0,37,0Zm0,73.5A36.5,36.5,0,1,1,73.5,37,36.5,36.5,0,0,1,37,73.5Z" transform="translate(0.13 0.13)"/></svg>