<svg width="480" height="480" xmlns="http://www.w3.org/2000/svg"><path fill="none" d="M-1-1h802v602H-1z"/><g fill="#d1d2d6" stroke="null"><path d="M333.75 161.25h-187.5c-10.35.012-18.738 8.4-18.75 18.75v120c.012 10.35 8.4 18.738 18.75 18.75h187.5a17.359 17.359 0 003.139-.274c9.023-1.51 15.628-9.327 15.611-18.476V180c-.012-10.35-8.4-18.738-18.75-18.75zm-187.5 150a11.25 11.25 0 01-11.205-10.26l74.767-48.885 76.035 59.145H146.25zM345 300a11.224 11.224 0 01-9.412 11.089 10.12 10.12 0 01-1.838.16h-35.689l-49.684-38.665 44.43-35.528L345 268.372V300zm0-40.373l-50.569-30.34a3.75 3.75 0 00-4.275.284L242.28 267.86l-29.981-23.318a3.75 3.75 0 00-4.35-.18L135 292.057V180c0-6.213 5.037-11.25 11.25-11.25h187.5c6.213 0 11.25 5.037 11.25 11.25v79.627z"/><path d="M240 183.75c-12.427 0-22.5 10.073-22.5 22.5.012 12.421 10.079 22.488 22.5 22.5 12.427 0 22.5-10.074 22.5-22.5 0-12.427-10.073-22.5-22.5-22.5zm0 37.5c-8.284 0-15-6.716-15-15s6.716-15 15-15c8.284 0 15 6.716 15 15s-6.716 15-15 15z"/></g></svg>